<svg width="18" height="17" viewBox="0 0 18 17" fill="none" xmlns="http://www.w3.org/2000/svg">
<path d="M7.74887 6.50186C7.8957 6.08447 8.18552 5.7325 8.56699 5.50831C8.94845 5.28412 9.39695 5.20217 9.83305 5.27697C10.2692 5.35177 10.6647 5.57851 10.9497 5.917C11.2346 6.2555 11.3906 6.68393 11.3899 7.1264C11.3899 8.37547 9.51631 9 9.51631 9M9.54046 11.5H9.54879M9.41554 15.6667C13.3276 15.6667 16.4989 12.4953 16.4989 8.58333C16.4989 4.67132 13.3276 1.5 9.41554 1.5C5.50352 1.5 2.33221 4.67132 2.33221 8.58333C2.33221 9.375 2.46208 10.1363 2.70168 10.8472C2.79185 11.1147 2.83693 11.2484 2.84506 11.3512C2.85309 11.4527 2.84702 11.5238 2.82192 11.6225C2.7965 11.7223 2.74037 11.8262 2.62812 12.034L1.26507 14.557C1.07064 14.9168 0.973431 15.0968 0.995189 15.2356C1.01414 15.3566 1.08533 15.4631 1.18985 15.5269C1.30985 15.6001 1.51329 15.579 1.92016 15.537L6.18768 15.0958C6.31691 15.0825 6.38153 15.0758 6.44042 15.0781C6.49835 15.0803 6.53924 15.0857 6.59573 15.0987C6.65317 15.112 6.72539 15.1398 6.86984 15.1954C7.65988 15.4998 8.51823 15.6667 9.41554 15.6667Z" stroke="#667085" stroke-width="1.67" stroke-linecap="round" stroke-linejoin="round"/>
</svg>
