<svg width="154" height="269" viewBox="0 0 154 269" fill="none" xmlns="http://www.w3.org/2000/svg">
<mask id="mask0_346_59750" style="mask-type:luminance" maskUnits="userSpaceOnUse" x="0" y="64" width="154" height="205">
<path d="M0.5 64.6289H153.5V269H0.5V64.6289Z" fill="white"/>
</mask>
<g mask="url(#mask0_346_59750)">
<path d="M69.1102 94.0945C68.6184 94.0537 65.7903 93.8906 63.782 91.4843C61.3639 88.5885 62.3065 85.0402 62.4295 84.714C60.4212 83.4088 59.3146 81.1249 59.6015 78.8409C59.8884 76.3122 61.7737 74.1914 64.3148 73.5796C64.3148 73.2941 64.2329 69.1341 67.6347 66.8093C70.3398 64.974 74.0285 65.0556 76.8565 67.0948C77.1434 66.8093 79.3157 64.6885 82.3076 65.0963C85.1766 65.4634 87.5948 68.0329 87.9637 71.3365C88.3325 71.3772 91.8573 71.8259 93.4558 74.844C94.9312 77.6174 94.1935 81.3696 91.4475 83.7351C91.6114 84.1022 93.0049 87.4873 91.1196 90.7094C89.6031 93.3604 86.4882 94.8694 83.2503 94.5024C78.5779 94.3392 73.8236 94.2169 69.1102 94.0945ZM83.4142 257.235V268.94C93.1689 268.94 102.923 268.94 112.678 268.94C112.432 266.738 111.735 264.046 109.727 262.659C107.924 261.436 106.161 262.007 103.661 261.721C101.284 261.476 98.0872 260.498 94.3574 257.235L83.4142 257.235ZM68.6184 257.235V268.94C58.8637 268.94 49.1091 268.94 39.3545 268.94C39.6004 266.738 40.2972 264.046 42.3055 262.659C44.1088 261.436 45.8712 262.007 48.3714 261.721C50.7485 261.476 53.9454 260.498 57.6751 257.235L68.6184 257.235Z" fill="#39484F"/>
<path d="M79.8487 102.7V103.924V102.7ZM79.8487 103.924V105.8H72.4303V98.7031C69.0695 96.623 67.0612 91.4433 67.0612 84.7138C66.5693 84.8769 65.8316 84.9993 65.2988 84.6322C63.9052 83.735 64.3151 80.2682 65.7496 79.738C65.9135 79.6564 66.4464 79.5341 67.3481 80.0643C67.471 79.167 67.594 78.229 67.7579 77.2909C67.8809 77.3317 69.6023 78.1474 71.1597 77.1278C72.4303 76.3121 72.6762 74.9662 72.7172 74.7622C72.8811 74.9662 73.7009 76.0674 75.2173 76.2305C76.5289 76.3936 77.8814 75.8226 78.7011 74.6807C78.9061 75.1293 79.9717 77.4133 82.5948 78.3921C84.726 79.2078 86.6114 78.7184 87.1852 78.5145C87.1852 79.6564 87.1442 80.7576 87.1032 81.8588C87.5541 81.7773 87.841 81.8588 87.9639 81.8996C89.3165 82.593 89.5214 86.1005 88.0869 86.8754C87.5541 87.1609 86.9393 87.0385 86.4474 86.8754C85.2998 92.5445 82.9637 96.7862 79.8487 98.6623V102.7" fill="#C08552"/>
<path d="M85.5861 161.105C86.2418 161.105 86.8566 161.105 87.5124 161.105H85.5861ZM87.5124 161.105C91.1601 161.105 94.8079 161.105 98.4146 161.105C99.4393 176.848 99.8901 194.059 99.3573 212.575C98.8655 228.849 97.6769 244.102 96.0784 258.173C94.8079 258.744 92.5127 259.56 89.6027 259.56C86.5287 259.56 84.1516 258.744 82.881 258.173C80.7907 236.312 78.7005 214.492 76.6102 192.631C74.315 214.37 71.9788 236.067 69.6836 257.806C67.8802 258.458 64.8472 259.274 61.1175 259.07C58.6584 258.907 56.6091 258.377 55.1336 257.847C53.945 243.857 53.1663 228.849 53.0024 212.983C52.7974 194.507 53.4942 177.174 54.6828 161.186C64.9702 161.145 75.2576 161.105 85.5861 161.105" fill="#074F80"/>
<path d="M22.3453 120.89C21.1567 121.828 19.9681 122.358 19.1074 122.685C17.427 120.441 15.7056 118.198 14.0252 115.955C4.84438 111.224 0.499887 108.247 0.950731 106.982C1.3196 105.922 5.04931 106.085 12.1399 107.472C11.4841 106.411 10.7463 105.066 11.0742 104.821C11.5661 104.372 14.558 106.942 16.2384 108.369C18.5336 110.327 21.7305 113.304 25.3783 117.423C24.8455 118.321 23.9028 119.667 22.3453 120.89ZM131.654 119.748C132.843 120.686 134.032 121.216 134.892 121.543C136.573 119.3 138.294 117.056 139.975 114.813C149.155 110.082 153.5 107.105 153.049 105.84C152.68 104.78 148.95 104.943 141.86 106.33C142.516 105.269 143.253 103.924 142.926 103.679C142.434 103.23 139.442 105.8 137.761 107.227C135.466 109.185 132.269 112.162 128.622 116.281C129.113 117.179 130.056 118.525 131.654 119.748Z" fill="#C08552"/>
<path d="M94.808 162.818C94.1523 163.103 93.4965 163.389 92.7997 163.633L94.808 162.818ZM92.7997 163.633C91.1193 164.245 89.3569 164.816 87.4306 165.306C83.6189 166.203 79.9302 166.529 76.4874 166.488C73.0446 166.57 69.3559 166.244 65.5442 165.306C61.2407 164.286 57.5929 162.736 54.6419 161.105C53.2894 160.371 52.4287 159.025 52.2238 157.516C51.8549 154.212 51.65 150.378 51.8549 146.137C52.1418 140.1 53.2074 134.921 54.3141 130.883C52.7156 132.759 44.1496 142.751 35.8704 140.712C34.0261 140.263 32.3047 139.244 27.1405 133.819C22.2222 128.599 18.1236 123.582 14.8447 119.096C15.6235 117.954 16.6891 116.527 18.2056 115.099C19.5171 113.876 20.7877 112.978 21.8943 112.326C27.2634 116.608 32.6736 120.85 38.0427 125.132C39.1903 123.134 41.1986 119.993 44.2315 116.649C49.1089 111.265 54.1911 108.329 56.8142 106.942C63.0031 103.679 68.7411 102.496 72.4298 102.048C72.5527 102.211 73.9053 104.046 76.2825 104.006C78.4137 103.965 79.6843 102.415 79.8482 102.211C83.8238 102.578 89.8078 103.638 96.2016 106.942C107.145 112.57 112.76 121.217 114.973 125.132C120.342 120.85 125.752 116.608 131.121 112.326C132.146 112.774 133.54 113.508 134.933 114.773C136.696 116.323 137.638 117.995 138.171 119.096C133.704 125.214 129.4 130.108 125.834 133.819C120.67 139.244 118.949 140.263 117.104 140.712C108.825 142.751 100.259 132.759 98.6607 130.883C99.7673 134.921 100.833 140.06 101.12 146.137C101.325 150.378 101.161 154.212 100.751 157.516C100.587 159.025 99.6853 160.371 98.3328 161.105C97.2672 161.676 96.0786 162.287 94.808 162.818" fill="#C7ACC6"/>
<path d="M73.3727 84.5916C73.2907 85.1626 72.8399 85.5704 72.389 85.5296C71.9382 85.4888 71.6103 84.9586 71.6923 84.3876C71.7743 83.8167 72.2251 83.4088 72.6759 83.4496C73.1678 83.4904 73.4547 84.0206 73.3727 84.5916ZM80.8321 84.6731C80.3813 84.6324 79.9304 85.0402 79.8485 85.6112C79.7665 86.1822 80.0944 86.7124 80.5452 86.7532C80.9961 86.794 81.4469 86.3861 81.5289 85.8151C81.6108 85.2441 81.283 84.7139 80.8321 84.6731Z" fill="#5E3023"/>
<path d="M69.7252 77.0053C68.2907 80.6352 67.512 81.8996 67.1431 81.7772C66.7332 81.6548 66.6103 80.0234 67.1431 75.6187C68.0038 76.0673 68.8645 76.5567 69.7252 77.0053ZM86.1195 77.5356C85.6687 79.2893 85.9146 80.5944 86.1195 81.2878C86.2425 81.6956 86.5704 82.8376 87.1032 82.8784C87.554 82.8784 87.8819 82.0627 88.0458 81.7364C88.2508 81.2062 88.5787 80.1866 88.2918 78.6368C87.513 78.2697 86.8163 77.9026 86.1195 77.5356Z" fill="#39484F"/>
<path d="M79.7661 192.387C77.6349 193.406 75.2987 193.365 73.1264 192.427C72.8395 192.305 73.0445 191.816 73.3314 191.938C74.274 192.305 75.2167 192.468 76.1594 192.468C74.5199 190.021 75.0118 187.044 75.0937 184.189C75.2577 178.601 75.3397 173.014 75.5856 167.426C75.5856 167.059 76.1594 167.059 76.1594 167.426C76.1184 171.627 75.9544 175.787 75.8315 179.988C75.7085 183.659 74.5199 189.246 76.7332 192.468C77.6758 192.427 78.5775 192.183 79.4792 191.816C79.8891 191.652 80.094 192.223 79.7661 192.387ZM61.6504 164.367C59.6831 169.058 57.019 173.218 53.4942 176.929C53.2073 177.215 53.6582 177.704 53.9451 177.378C57.5108 173.625 60.2979 169.343 62.1832 164.49C62.3062 164.163 61.7734 164.041 61.6504 164.367ZM99.0295 177.011C95.2178 173.748 92.8406 169.384 92.0619 164.449C92.0209 164.123 91.4471 164.204 91.4881 164.53C92.1438 169.629 94.644 174.115 98.5786 177.459C98.8655 177.745 99.3573 177.296 99.0295 177.011ZM62.5111 222.771C60.1749 222.078 57.7567 222.078 55.4206 222.731C55.0107 222.853 55.1746 223.465 55.5845 223.342C57.8387 222.731 60.0929 222.69 62.3472 223.261C62.675 223.383 62.839 222.853 62.5111 222.771ZM59.847 223.71C59.3552 223.75 58.6584 223.669 58.2076 223.873C58.0027 223.954 57.9617 224.281 58.2076 224.362C58.6994 224.484 59.3552 224.362 59.847 224.321C60.2159 224.281 60.2159 223.71 59.847 223.71ZM97.1441 223.791C95.0538 222.975 92.4717 223.506 90.4634 224.362C90.1765 224.484 90.3815 225.015 90.6684 224.892C92.8406 223.995 94.7669 224.117 97.0212 224.321C97.39 224.321 97.39 223.873 97.1441 223.791ZM95.0538 225.259C94.521 225.178 93.9472 225.341 93.4144 225.422C93.0865 225.463 93.1685 226.034 93.4964 225.993C94.0292 225.912 94.603 225.953 95.0948 225.708C95.2997 225.626 95.2588 225.3 95.0538 225.259Z" fill="#39484F"/>
<path d="M68.7001 83.4902C68.3722 84.3467 68.3722 85.3256 68.7001 86.182C69.2739 87.5279 70.6674 88.466 72.1429 88.466C72.2248 88.466 72.2658 88.466 72.3478 88.466C73.8643 88.3844 75.2988 87.2424 75.7086 85.815C75.7906 85.5703 75.8316 85.2848 75.8316 84.9993L75.8726 84.9585C76.0365 84.6322 76.4054 84.4691 76.7743 84.5098C77.1021 84.5506 77.389 84.7953 77.512 85.1216C77.3071 85.8965 77.3071 86.753 77.635 87.4872C78.2088 88.8331 79.6023 89.7711 81.0778 89.7711C81.1597 89.7711 81.2007 89.7711 81.2827 89.7711C82.7992 89.6896 84.2337 88.5476 84.6435 87.1201C84.8485 86.386 84.8075 85.5295 84.5206 84.7953L87.7585 82.3075C87.8814 82.1851 87.9224 81.9812 87.7994 81.8588C87.6765 81.6957 87.4715 81.6957 87.3486 81.818L84.2747 84.2244C83.9878 83.6941 83.6189 83.2455 83.1271 82.96C81.8565 82.1851 79.8072 82.389 78.6186 83.4087C78.2907 83.6941 78.0448 84.0612 77.8399 84.4283C77.594 84.1428 77.2661 83.9796 76.8972 83.8981C76.4874 83.8573 76.1185 83.9389 75.8316 84.1836C75.6266 83.1232 75.0528 82.1443 74.2331 81.6141C72.9626 80.8392 70.9133 81.0431 69.7247 82.0627C69.4788 82.2667 69.2738 82.5522 69.0689 82.8377L67.3475 80.0235C67.2655 79.8604 67.0606 79.8196 66.8967 79.9011C66.7327 79.9827 66.6917 80.1866 66.7737 80.3498L68.7001 83.4902ZM78.9875 83.8165C79.9302 82.96 81.6926 82.7969 82.7172 83.4087C83.1681 83.6941 83.5369 84.1836 83.7419 84.7138C83.7419 84.7546 83.7828 84.7546 83.7828 84.7953C84.0697 85.4887 84.1517 86.2228 83.9468 86.9162C83.6189 88.0989 82.4303 89.037 81.2007 89.1186C79.9302 89.2001 78.7006 88.3844 78.2088 87.2425C77.7169 86.1005 78.0448 84.673 78.9875 83.8165ZM70.0936 82.5114C71.0363 81.6549 72.7986 81.4918 73.7823 82.1035C74.8069 82.7561 75.3807 84.3875 75.0529 85.611C74.725 86.7938 73.5364 87.7319 72.3068 87.8134C71.0363 87.895 69.8067 87.0793 69.3148 85.9373C68.823 84.7953 69.1509 83.3679 70.0936 82.5114ZM72.7167 98.7031C74.9709 99.6003 77.1841 99.6819 79.3974 98.5807C79.7662 98.4176 80.0531 98.9478 79.7252 99.1109C77.471 100.253 74.766 100.375 72.5527 99.1109C72.3068 99.0293 72.4707 98.6215 72.7167 98.7031ZM74.0692 89.8119C73.9462 89.5264 74.3151 89.2817 74.5201 89.5672C74.8069 89.9751 75.2578 90.3013 75.7906 90.3013C76.3234 90.3013 76.6103 89.9751 76.9382 89.608C77.1431 89.4041 77.553 89.608 77.43 89.8935C76.8152 91.321 74.684 91.1986 74.0692 89.8119ZM78.2907 94.4206C78.5776 94.5838 78.3317 94.9916 78.0448 94.8693C76.3644 94.0943 74.602 93.6865 72.7577 93.7273C72.3478 93.7273 72.3478 93.1155 72.7577 93.0747C74.684 92.9931 76.5693 93.4418 78.2907 94.4206ZM75.4217 95.1548C75.1758 95.0732 75.0938 94.6653 75.4217 94.6245C75.6676 94.5838 75.8316 94.6245 76.0775 94.6245C76.4874 94.6653 76.4874 95.2771 76.0775 95.2771C75.8726 95.2363 75.6267 95.2363 75.4217 95.1548ZM70.4215 89.9751C70.2165 90.2198 70.0936 90.5053 69.8067 90.6276C69.6018 90.7092 69.4788 90.5053 69.5198 90.3421C69.5608 90.0566 69.8067 89.8527 69.9706 89.6488C70.1755 89.3633 70.6264 89.6896 70.4215 89.9751ZM71.1592 90.2605C71.0362 90.4237 70.9133 90.5868 70.7493 90.6684C70.5444 90.7908 70.2575 90.5868 70.3395 90.3829C70.4215 90.1382 70.5854 90.0158 70.7493 89.8527C71.0362 89.5672 71.4051 89.9751 71.1592 90.2605ZM81.4466 91.4025C81.2827 91.6472 81.2417 91.8104 80.9548 91.9327C80.7909 91.9735 80.6679 91.8512 80.6269 91.688C80.6269 91.4433 80.7499 91.2802 80.9138 91.117C81.1597 90.7908 81.6516 91.0355 81.4466 91.4025ZM81.4466 91.8104C81.5286 91.6065 81.6926 91.4841 81.8155 91.321C82.0614 91.0355 82.4713 91.4433 82.2254 91.7288C82.1024 91.8919 81.9795 92.0551 81.7745 92.1774C81.5696 92.2998 81.3647 92.0143 81.4466 91.8104ZM88.3732 85.5703C88.2503 85.9781 87.6355 85.815 87.7585 85.4071C87.8814 85.0401 88.2503 83.4494 87.4716 83.531C87.1847 83.5718 87.1437 83.1232 87.3896 83.0416C88.7831 82.6745 88.6192 84.7953 88.3732 85.5703ZM65.1343 82.7561C65.2163 81.9404 65.2982 80.1458 66.6098 80.6761C66.8967 80.7984 66.7737 81.247 66.4868 81.1655C65.7491 80.9615 65.872 82.3482 65.7901 82.7969C65.7491 83.1232 65.0933 83.1639 65.1343 82.7561ZM54.6009 128.476C55.1338 125.05 55.9535 121.624 56.6912 118.198C56.7732 117.79 57.388 117.954 57.306 118.361C56.6093 121.787 56.0354 125.254 55.1747 128.639C55.0518 128.966 54.56 128.802 54.6009 128.476ZM96.8983 119.503C96.7753 119.136 97.3491 118.973 97.4721 119.34C98.4967 122.522 99.1525 125.744 99.3984 129.047C99.4394 129.455 98.7836 129.455 98.7426 129.047C98.4967 125.825 97.882 122.644 96.8983 119.503ZM43.0429 129.17C41.3625 128.15 39.8461 126.804 38.3296 125.621C38.0837 125.417 38.4115 125.009 38.6575 125.213C40.2559 126.355 41.9363 127.457 43.4118 128.762C43.6577 128.966 43.3298 129.373 43.0429 129.17ZM114.604 125.744C113.661 126.722 112.76 127.783 111.735 128.68C111.448 128.966 111.038 128.558 111.284 128.231C112.145 127.212 113.211 126.274 114.153 125.295C114.44 125.05 114.85 125.458 114.604 125.744ZM80.8728 102.496C81.0778 102.129 81.6106 102.455 81.4466 102.822C79.2334 107.268 72.7167 107.513 70.7084 102.741C70.5854 102.455 70.9543 102.211 71.1182 102.496C73.3724 106.493 78.7006 106.697 80.8728 102.496ZM82.6352 102.863C80.6679 109.674 71.1592 109.878 69.1509 102.945C69.0279 102.578 69.6017 102.414 69.7247 102.782C71.733 108.94 80.1761 109.022 81.9795 102.659C82.1024 102.292 82.7172 102.455 82.6352 102.863ZM100.587 157.637C85.9141 166.529 67.7574 166.692 52.6336 158.943C52.2648 158.739 52.5926 158.168 52.9615 158.372C68.2492 166.202 85.4223 165.427 100.341 157.189C100.628 157.026 100.874 157.474 100.587 157.637ZM16.0333 119.993C15.7874 120.319 15.2136 119.993 15.4595 119.667C17.4268 117.056 19.845 114.813 22.714 113.223C23.0419 113.019 23.3698 113.549 23.0419 113.753C20.2958 115.384 17.9596 117.464 16.0333 119.993ZM23.9026 114.365C21.1565 116.241 18.7384 118.321 16.5661 120.849C16.2792 121.176 15.8694 120.727 16.1153 120.401C18.2055 117.831 20.7467 115.547 23.6157 113.916C23.9026 113.753 24.1485 114.201 23.9026 114.365ZM137.146 119.911C137.351 120.278 136.777 120.605 136.573 120.238C135.015 117.423 132.925 115.18 130.425 113.223C130.179 113.019 130.507 112.611 130.753 112.774C133.458 114.568 135.589 117.097 137.146 119.911ZM135.999 121.257C136.163 121.624 135.507 121.828 135.384 121.42C134.154 118.484 132.105 116.2 129.482 114.446C129.154 114.242 129.441 113.712 129.769 113.916C132.597 115.629 134.728 118.239 135.999 121.257ZM147.147 106.575C147.188 106.656 147.229 106.779 147.27 106.86H147.311C149.032 106.656 150.754 106.493 152.516 106.411C152.803 106.411 152.844 106.86 152.598 106.901C150.918 107.186 149.196 107.349 147.475 107.513C147.516 107.635 147.516 107.757 147.557 107.88C148.95 107.798 150.385 107.594 151.737 107.309C152.024 107.227 152.147 107.676 151.86 107.757C150.467 108.165 149.073 108.41 147.639 108.491C147.639 108.655 147.68 108.777 147.68 108.94C147.68 109.266 147.147 109.389 147.065 109.022C146.901 107.961 146.696 106.982 146.245 105.963C146.081 105.637 146.532 105.351 146.737 105.677C146.778 105.759 146.86 105.881 146.901 105.963C148.827 105.718 150.795 105.677 152.762 105.637C153.131 105.637 153.09 106.126 152.762 106.167C150.877 106.33 148.991 106.575 147.147 106.575ZM145.548 109.307C144.647 109.144 143.786 108.859 142.884 108.614C142.515 108.532 142.679 108.002 143.048 108.084C143.95 108.288 144.852 108.451 145.712 108.695C146.122 108.818 145.958 109.389 145.548 109.307ZM143.663 107.227C143.827 107.268 143.991 107.309 144.114 107.349C144.36 107.472 144.36 107.92 144.032 107.88C143.827 107.88 143.663 107.839 143.458 107.798C143.089 107.676 143.253 107.105 143.663 107.227ZM8.12304 107.105C7.63121 108.084 7.46727 109.062 7.30332 110.164C7.26234 110.531 6.68854 110.408 6.68854 110.082C6.68854 109.919 6.68854 109.797 6.72952 109.633C5.29502 109.552 3.9015 109.307 2.50798 108.899C2.22108 108.818 2.34404 108.369 2.63094 108.451C4.02446 108.736 5.41798 108.94 6.81149 109.022C6.85248 108.899 6.85248 108.777 6.89347 108.655C5.17206 108.491 3.49164 108.328 1.77024 108.043C1.48334 108.002 1.56531 107.553 1.85221 107.553C3.57361 107.635 5.29502 107.839 7.05741 108.002H7.09839C7.13938 107.92 7.18037 107.798 7.22135 107.717C5.37699 107.717 3.49164 107.472 1.64728 107.309C1.3194 107.268 1.3194 106.779 1.64728 106.779C3.57361 106.86 5.58192 106.86 7.50825 107.105C7.54924 107.023 7.59022 106.901 7.6722 106.819C7.83614 106.493 8.28698 106.779 8.12304 107.105ZM11.4429 109.756C10.5822 110.001 9.6805 110.286 8.77881 110.449C8.36895 110.531 8.20501 109.96 8.61487 109.837C9.47557 109.552 10.3773 109.389 11.2789 109.226C11.6478 109.144 11.7708 109.674 11.4429 109.756ZM10.2133 108.491C10.3773 108.41 10.5002 108.41 10.6642 108.369C11.033 108.288 11.197 108.859 10.8281 108.94C10.6232 108.981 10.4592 109.022 10.2543 109.022C9.9674 109.022 9.9674 108.573 10.2133 108.491ZM79.9302 125.825C77.8399 130.515 75.8316 135.287 73.4954 139.855C73.3724 140.141 72.8396 139.937 72.9626 139.651C74.9299 134.879 77.2251 130.189 79.4383 125.54C79.6023 125.173 80.0941 125.499 79.9302 125.825ZM79.4793 136.796C79.6843 135.899 80.1761 135.002 80.545 134.145C80.7089 133.778 81.3237 133.941 81.1597 134.308C80.7909 135.206 80.504 136.185 80.0121 137.041C79.8072 137.286 79.3974 137.123 79.4793 136.796ZM68.4951 267.839C58.9044 268.858 49.1908 268.247 39.6001 267.757C39.1903 267.716 39.1903 267.064 39.6001 267.105C49.2728 267.635 58.8225 267.88 68.4951 267.39C68.782 267.349 68.782 267.798 68.4951 267.839ZM46.7317 262.088C46.4858 261.843 46.8546 261.476 47.1005 261.721C47.4284 262.047 47.7563 262.333 48.0842 262.659C48.3711 262.945 48.74 263.23 48.9449 263.597C49.1088 263.842 48.781 264.127 48.535 264.005C48.1662 263.801 47.9203 263.434 47.6334 263.148C47.3465 262.741 47.0186 262.414 46.7317 262.088ZM48.9039 261.803C48.699 261.599 48.9859 261.232 49.2318 261.395C49.5597 261.639 49.9286 261.925 50.2564 262.17C50.5843 262.455 50.9942 262.741 51.2811 263.067C51.486 263.312 51.2401 263.679 50.9122 263.516C50.5434 263.312 50.2155 262.985 49.9286 262.7C49.5597 262.455 49.2318 262.129 48.9039 261.803ZM50.9942 261.354C50.7483 261.109 51.1171 260.783 51.3631 260.987C51.6909 261.272 52.0598 261.517 52.3877 261.803C52.7156 262.047 53.0845 262.292 53.2894 262.659C53.4123 262.863 53.2074 263.149 53.0025 263.067C52.6336 262.904 52.3467 262.618 52.0598 262.333C51.65 262.007 51.3221 261.68 50.9942 261.354ZM112.473 268.247C102.8 267.92 93.1686 267.553 83.4959 267.676C83.0861 267.676 83.0861 267.023 83.4959 267.023C93.1276 266.901 102.841 266.982 112.473 267.757C112.76 267.798 112.76 268.247 112.473 268.247ZM100.095 261.232C99.7263 261.476 99.3574 261.762 98.9886 262.007C98.6607 262.21 98.2918 262.578 97.9229 262.618C97.718 262.659 97.5131 262.455 97.636 262.251C97.882 261.925 98.2918 261.721 98.6197 261.517C99.0296 261.272 99.4394 260.987 99.8493 260.742C100.136 260.538 100.423 261.028 100.095 261.232ZM99.5214 262.578C100.218 262.047 100.956 261.599 101.653 261.15C101.981 260.946 102.267 261.436 101.94 261.68C101.243 262.17 100.546 262.7 99.8083 263.148C99.5214 263.312 99.1525 262.863 99.5214 262.578ZM101.489 263.23C102.185 262.578 103.087 262.129 103.866 261.599C104.194 261.395 104.481 261.884 104.153 262.088C103.415 262.618 102.677 263.271 101.858 263.679C101.571 263.842 101.243 263.475 101.489 263.23Z" fill="#5E3023"/>
<path d="M70.8725 80.2275C72.6349 80.3906 74.2743 80.4314 76.0367 80.0643C76.3646 79.9827 76.4875 80.4722 76.1596 80.5537C74.4792 81.0839 72.5119 81.2879 70.7905 80.7984C70.5036 80.7169 70.5446 80.1867 70.8725 80.2275ZM78.9057 81.6549C80.4631 80.5537 83.66 80.5945 84.4798 82.6746C84.5617 82.8785 84.2748 83.1232 84.0699 83.0008C83.3731 82.4706 82.9223 81.9404 82.0616 81.6549C81.1189 81.3694 80.0123 81.5734 79.1516 82.0628C78.8647 82.2667 78.6188 81.8589 78.9057 81.6549Z" fill="#5E3023"/>
</g>
<path d="M66.5115 37.258C67.5464 34.0962 73.8504 28.3808 71.7689 25.0931C70.8354 23.6186 67.4071 22.427 64.807 25.0155C63.4893 26.3274 64.1913 29.5913 64.1771 31.6851C64.1572 34.5696 59.9322 36.0028 57.1254 31.1089C54.3188 26.2153 58.0736 19.1514 64.2989 17.389C72.7078 15.1999 81.4048 21.1515 79.7093 30.2987C78.9107 34.608 74.6761 37.0031 73.8773 38.9502C73.1572 40.4929 75.5005 44.1084 72.0636 45.1118C67.04 46.5795 65.6337 39.6104 66.5115 37.258ZM73.6273 48.5472C71.0137 47.3591 67.512 48.2591 68.0429 53.506C68.5452 55.9708 72.2175 57.2608 74.2057 55.8611C77.8713 52.8334 76.1692 49.703 73.6273 48.5472ZM98.1865 20.2498C91.8696 18.923 85.2602 23.4485 85.4559 29.0948C85.6515 34.741 90.0497 35.4312 91.4113 32.8809C92.4007 31.0292 93.3026 27.8065 95.0781 27.2542C98.581 26.1643 101.052 28.8138 101.188 30.5556C101.492 34.4401 93.2618 36.5847 90.8735 38.9105C89.0016 40.5903 86.9933 47.428 92.1124 48.4585C95.6146 49.1637 95.2315 44.8669 96.587 43.8323C98.2004 42.4749 103.056 42.3158 105.77 38.8624C111.533 31.5318 106.631 22.2114 98.1865 20.2498ZM91.891 52.2331C90.1374 49.9653 86.6266 49.1378 84.6487 54.0406C83.943 56.4613 86.5828 59.3115 88.9909 58.9922C93.6389 58.0078 93.5962 54.4389 91.891 52.2331ZM131.643 41.1008C127.344 36.3078 119.352 36.0864 116.172 40.778C112.992 45.4698 116.123 48.6175 118.727 47.3526C120.617 46.4335 123.248 44.3522 125.003 44.9494C128.465 46.1272 128.887 49.7289 127.967 51.2208C125.917 54.5483 118.026 51.4436 114.73 51.9232C112.231 52.1832 106.574 56.5437 110.084 60.3915C112.485 63.0238 114.716 59.3159 116.418 59.2748C118.519 59.124 122.519 61.8521 126.745 60.6505C135.714 58.0998 137.279 47.6604 131.643 41.1008ZM100.779 60.5234C98.7798 62.0703 99.2199 65.9338 101.346 67.0925C105.668 69.0294 107.743 66.1115 107.674 63.3203C107.604 60.4502 105.268 57.7133 100.779 60.5234Z" fill="#86B9B4"/>
<path d="M60.4838 23.0041C59.3239 23.8224 58.7694 25.2351 58.5011 26.5887C58.2855 27.6749 58.2183 29.5574 59.4537 30.0409C59.6472 30.1165 59.9231 29.9775 59.9666 29.7705C60.1787 28.7653 59.6334 27.7543 59.832 26.6811C60.047 25.5188 60.7002 24.4939 61.0962 23.3953C61.2369 23.0077 60.7633 22.807 60.4838 23.0041ZM73.2 32.5711C73.0141 33.1901 72.7357 33.7696 72.4843 34.3639C72.2838 34.8377 72.0308 35.4444 71.973 35.9537C71.9577 36.0864 72.128 36.2003 72.2443 36.1267C73.3343 35.4359 73.7422 33.878 73.8951 32.689C73.9472 32.2835 73.3139 32.1913 73.2 32.5711ZM71.8553 50.7949C71.7019 50.9957 71.7927 50.8504 72.067 50.9893C72.3497 51.1327 72.584 51.3393 72.7958 51.5712C73.2697 52.0911 73.4209 52.7233 72.9711 53.3029C72.5198 53.8837 73.481 54.4891 73.9285 53.9135C74.7565 52.8478 74.358 51.5317 73.4876 50.6426C72.87 50.0116 71.6023 49.2636 70.8985 50.1844C70.4513 50.7685 71.4124 51.3748 71.8553 50.7949ZM92.212 23.459C90.22 23.7624 86.4663 26.9907 87.9942 29.2124C88.1516 29.4412 88.5079 29.3535 88.6436 29.1579C88.8872 28.8073 88.9602 28.4933 89.0572 28.0767C89.224 27.3617 89.6321 26.7401 90.1072 26.1906C90.805 25.3839 91.7551 24.8149 92.5446 24.1071C92.84 23.842 92.5746 23.4039 92.212 23.459ZM98.9781 37.8432C98.5269 38.3052 98.0122 38.688 97.5146 39.0974C97.1139 39.427 96.5978 39.8527 96.3079 40.2815C96.2353 40.3888 96.3129 40.5803 96.457 40.5681C97.7388 40.4591 98.8244 39.283 99.5146 38.2977C99.7436 37.9705 99.2604 37.5542 98.9781 37.8432ZM89.2563 53.4176C89.1605 53.4624 89.0781 53.3994 89.1518 53.4428C89.2509 53.5007 89.3214 53.6074 89.3905 53.6965C89.5696 53.9269 89.671 54.2349 89.7426 54.5132C89.9149 55.1812 89.7821 55.8325 89.1163 56.1369C88.4449 56.4437 88.9652 57.4522 89.6315 57.1476C90.8611 56.5854 91.1515 55.2514 90.7945 54.0459C90.5509 53.2247 89.7867 51.9189 88.7408 52.4067C88.0724 52.7184 88.5919 53.7274 89.2563 53.4176ZM124.99 40.2138C123.773 39.527 122.31 39.6343 120.979 39.9571C119.928 40.2122 117.932 41.0653 118.152 42.4139C118.189 42.6398 118.428 42.762 118.639 42.7244C119.087 42.6441 119.361 42.339 119.7 42.0508C120.225 41.6036 120.865 41.3587 121.524 41.1897C122.613 40.9108 123.762 41.0373 124.866 40.9006C125.193 40.8596 125.264 40.3681 124.99 40.2138ZM121.841 55.8339C121.217 55.9423 120.584 55.9514 119.952 55.9846C119.424 56.0124 118.768 56.0561 118.274 56.2405C118.137 56.2917 118.149 56.4943 118.258 56.5638C118.685 56.8351 119.409 56.9173 119.911 56.9269C120.616 56.9406 121.33 56.7575 121.991 56.5279C122.418 56.3796 122.305 55.7538 121.841 55.8339ZM104.776 62.7119C104.938 62.7459 104.769 62.7095 104.752 62.6789C104.795 62.7552 104.793 62.8753 104.795 62.9589C104.803 63.2469 104.731 63.5234 104.641 63.7945C104.435 64.416 103.926 65.01 103.213 64.8695C102.502 64.7297 102.152 65.8145 102.873 65.9562C104.213 66.2198 105.17 65.45 105.681 64.2548C105.997 63.515 106.215 61.8554 105.116 61.6256C104.405 61.4765 104.056 62.5613 104.776 62.7119Z" fill="#F4F0D2"/>
<path d="M74.2166 44.1684C74.9802 42.9072 74.3667 41.1835 74.3 39.84C74.2178 38.1826 76.683 36.5427 77.6493 35.3928C79.1829 33.5679 80.1279 31.6834 80.4251 29.3182C80.8571 25.8805 79.5678 22.4894 77.1743 20.05C73.3891 16.1921 66.999 15.3526 62.1628 17.608C57.2079 19.9193 53.9191 26.2994 56.6183 31.3692C56.6195 31.3714 56.6209 31.3728 56.6221 31.375C58.075 33.7295 60.9456 36.1918 63.6749 34.082C64.7139 33.2789 64.7712 31.9308 64.7167 30.748C64.5896 28.0003 64.0461 25.0949 67.402 24.1677C69.1323 23.6898 71.5155 24.5929 71.6188 26.5692C71.713 28.3736 70.2914 30.242 69.3368 31.662C67.6593 34.1576 65.5458 36.3941 65.7254 39.564C65.8886 42.4446 67.44 45.5942 70.5952 45.88C71.975 46.0045 73.4979 45.3551 74.2166 44.1684ZM67.0293 40.6803C66.1538 37.0146 68.9223 34.3714 70.7873 31.5281C72.123 29.4917 73.8132 26.442 71.8414 24.2818C69.9582 22.2184 66.0353 22.6146 64.3279 24.7102C62.8973 26.4661 63.5054 29.1352 63.6007 31.1981C63.6634 32.5569 63.009 33.6431 61.5501 33.7539C59.7825 33.8882 58.4428 32.1628 57.634 30.8493C55.4611 26.768 57.6983 22.1717 61.1139 19.5589C64.658 16.848 69.86 16.9765 73.6896 18.9118C77.4412 20.8074 79.5161 24.6335 79.3289 28.7828C79.1976 31.6886 77.603 33.8549 75.6657 35.883C74.6625 36.9334 73.412 37.9786 73.1724 39.4791C72.8964 41.2091 74.36 43.3221 72.3017 44.4272C69.4831 45.9404 67.5713 42.9499 67.0293 40.6803ZM73.9358 48.0684C73.9151 48.0584 73.8946 48.0532 73.8739 48.0455C73.8493 48.031 73.8256 48.0159 73.7977 48.0042C71.6604 47.1048 68.9035 47.4726 67.9171 49.8539C66.7468 52.6797 67.5241 55.5022 70.3972 56.6764C73.1032 57.7823 75.629 56.0675 76.6528 53.5429C77.5743 51.2696 75.9068 49.0281 73.9358 48.0684ZM71.0481 55.6935C68.6164 55.0558 68.1758 52.6729 68.8676 50.5179C69.5168 48.4961 71.7452 48.3944 73.4026 49.0698C74.7447 49.7473 75.8078 50.87 75.7385 52.4633C75.636 54.8166 73.1379 56.2413 71.0481 55.6935ZM96.7132 19.475C91.1297 18.9651 84.8676 23.1395 84.8868 29.0731C84.8869 29.0813 84.8889 29.0883 84.8891 29.0961C85.0767 31.8402 86.4434 35.3823 89.8332 34.7782C90.9722 34.575 91.7099 33.6077 92.1669 32.6317C93.4163 29.9627 94.356 26.7695 98.0194 27.7821C100.241 28.3963 101.342 30.8111 99.7935 32.612C98.4927 34.1249 96.4341 35.0267 94.6963 35.9261C92.0652 37.2876 89.9016 38.4053 88.8284 41.2858C87.9225 43.7168 88.0159 46.75 90.282 48.3512C91.3739 49.1227 92.8866 49.2873 94.1184 48.8218C95.43 48.3259 95.896 46.4932 96.3198 45.3437C96.9479 43.6396 98.907 43.3721 100.451 42.8437C102.284 42.2166 103.987 41.3928 105.43 40.0818C108.075 37.68 109.139 33.797 108.72 30.363C108.003 24.5003 102.403 19.9945 96.7132 19.475ZM105.613 38.1324C104.228 40.1315 102.007 41.1199 99.7831 41.8803C98.496 42.3206 97.0247 42.6393 96.0076 43.6001C94.9538 44.5955 95.0124 46.3685 94.066 47.4691C93.1609 48.5216 91.3013 47.7902 90.4533 47.0503C89.6792 46.3745 89.4648 45.2857 89.4332 44.3108C89.3115 40.5424 91.7822 38.7141 94.7974 37.151C97.079 35.968 101.386 34.266 101.725 31.2458C102.052 28.3358 98.7945 26.0611 96.0858 26.4688C93.3715 26.8773 92.5124 29.082 91.5018 31.3749C90.9356 32.6599 90.2857 33.9733 88.6373 33.6762C86.6529 33.3185 86.133 30.7466 86.0252 29.1165C86.0102 24.4899 90.1044 21.4346 94.3452 20.7006C98.8603 19.9193 103.512 22.5761 105.956 26.2431C108.427 29.9514 108.112 34.5264 105.613 38.1324ZM92.3157 51.8522C91.0047 50.2378 89.0004 49.3696 86.9989 50.2535C84.4965 51.3582 83.3185 54.6744 84.5697 57.0151C86.0156 59.7203 89.0109 60.082 91.4987 58.6287C94.0809 57.1202 93.8622 53.9849 92.3157 51.8522ZM90.616 57.832C88.4486 59.0981 86.0545 58.0452 85.2469 55.7576C84.6404 54.0407 86.2157 51.6947 87.8628 51.1219C89.2644 50.6343 90.629 51.5831 91.4661 52.6139C92.7864 54.4347 92.6695 56.6323 90.616 57.832ZM132.698 41.5083C128.919 36.2101 119.817 34.7998 115.693 40.4724C115.689 40.4785 115.687 40.4847 115.683 40.4909C114.281 42.6926 113.375 45.8659 115.817 47.6838C118.371 49.5836 121.568 45.95 123.978 45.4362C126.62 44.873 128.574 48.851 127.489 50.9151C126.639 52.5307 123.958 52.2561 122.479 52.1369C119.665 51.9106 116.394 50.651 113.616 51.6225C111.377 52.4055 108.902 54.5267 108.483 56.9585C108.062 59.4026 110.017 62.4214 112.739 61.7834C113.939 61.5025 114.877 60.5256 115.951 59.9757C117.26 59.3055 119.786 60.671 121.068 61.0244C124.841 62.0654 128.511 61.2312 131.548 58.7503C136.816 54.4458 136.32 46.5879 132.698 41.5083ZM124.683 60.3872C122.689 60.4844 120.738 59.7528 118.87 59.1653C117.728 58.8063 116.586 58.4948 115.436 58.9654C114.152 59.4907 113.077 61.0192 111.545 60.7153C109.03 60.2172 109.377 56.9257 110.413 55.4047C112.433 52.4396 115.399 52.2792 118.59 52.7503C121.202 53.1359 125.106 54.2231 127.491 52.5089C129.783 50.8609 129.167 47.2092 127.188 45.5646C124.408 43.2558 121.992 44.8615 119.261 46.4261C118.089 47.0978 116.942 47.3855 115.949 46.2708C114.64 44.8025 115.788 42.4323 116.651 41.0834C119.641 36.9699 125.479 37.3381 129.353 39.8482C133.21 42.3472 134.946 47.5897 134.173 51.9905C133.373 56.5455 129.321 60.1609 124.683 60.3872ZM104.764 58.8177C101.597 58.4757 98.7635 60.6976 98.9468 63.9316C99.1183 66.9589 101.828 68.5491 104.665 68.2285C107.048 67.9589 108.243 65.4815 108.244 63.342C108.141 61.2935 107.039 59.0635 104.764 58.8177ZM105.348 66.83C104.547 67.2824 103.56 67.1816 102.708 66.9797C101.229 66.629 100.442 65.6659 100.126 64.2196C99.5498 61.5823 102.014 59.86 104.423 59.9219C106.184 59.9669 107.029 61.7746 107.106 63.2973C107.106 63.2979 107.106 63.2982 107.106 63.2986C107.106 64.7056 106.638 66.1019 105.348 66.83Z" fill="white"/>
</svg>
