<svg width="1440" height="104" viewBox="0 0 1440 104" fill="none" xmlns="http://www.w3.org/2000/svg">
<path opacity="0.3" d="M-12.75 61.6059L-12.75 103.737L1436.16 103.737V28.4625C1399.34 35.9526 1313.79 53.292 1266.15 62.7294C1206.59 74.5262 1131.87 81.2672 1021.41 89.6935C910.958 98.1198 721.452 61.6059 709.54 59.9206C697.628 58.2354 596.919 31.2713 404.164 25.092C249.96 20.1486 61.9697 47.3749 -12.75 61.6059Z" fill="white"/>
<path d="M-2.94531 63.2543L-2.94531 105.386L1445.97 105.386V30.111C1409.15 37.601 1323.6 54.9404 1275.95 64.3778C1216.39 76.1746 1141.67 82.9157 1031.22 91.3419C920.763 99.7682 731.257 63.2543 719.345 61.5691C707.433 59.8838 606.724 32.9197 413.969 26.7405C259.765 21.797 71.7744 49.0233 -2.94531 63.2543Z" fill="white"/>
<path opacity="0.6" d="M-2.18945 49.6801L-2.18945 91.8115L1446.72 91.8115V16.5367C1409.9 24.0268 1324.36 41.3662 1276.71 50.8036C1217.15 62.6004 1142.43 69.3414 1031.97 77.7677C921.519 86.194 732.013 49.6801 720.101 47.9949C708.189 46.3096 607.48 19.3455 414.725 13.1662C260.521 8.22282 72.5302 35.4491 -2.18945 49.6801Z" fill="white"/>
<path opacity="0.15" d="M1450.5 37.6059V79.7373L-7.47144 79.7373V4.46253C29.577 11.9526 115.66 29.292 163.605 38.7294C223.537 50.5262 298.724 57.2672 409.869 65.6935C521.015 74.1198 711.705 37.6059 723.692 35.9206C735.678 34.2354 837.016 7.27129 1030.98 1.09202C1186.14 -3.85139 1375.31 23.3749 1450.5 37.6059Z" fill="white"/>
<path opacity="0.2" d="M1451.25 60.2455V102.377L-6.71753 102.377V27.1022C30.3311 34.5922 116.414 51.9316 164.359 61.3691C224.291 73.1658 299.478 79.9069 410.623 88.3332C521.769 96.7594 712.459 60.2455 724.446 58.5603C736.432 56.875 837.77 29.9109 1031.73 23.7317C1186.9 18.7882 1376.06 46.0145 1451.25 60.2455Z" fill="white"/>
</svg>
